<?xml version="1.0" encoding="UTF-8" standalone="no"?>
<svg
   width="900.01044"
   height="900"
   viewBox="0 0 900.01044 900"
   version="1.1"
   xml:space="preserve"
   id="SVGRoot"
   inkscape:version="1.3.2 (091e20e, 2023-11-25, custom)"
   sodipodi:docname="healthiu_logo.svg"
   xmlns:inkscape="http://www.inkscape.org/namespaces/inkscape"
   xmlns:sodipodi="http://sodipodi.sourceforge.net/DTD/sodipodi-0.dtd"
   xmlns="http://www.w3.org/2000/svg"
   xmlns:svg="http://www.w3.org/2000/svg"><defs
   id="defs9"><inkscape:path-effect
     effect="fillet_chamfer"
     id="path-effect79"
     is_visible="true"
     lpeversion="1"
     nodesatellites_param="F,0,0,1,0,0,0,1 @ F,0,0,1,0,0,0,1 @ F,0,0,1,0,0,0,1 @ F,0,0,1,0,0,0,1 @ F,0,0,1,0,0,0,1 @ F,0,0,1,0,0,0,1 | F,0,0,1,0,0,0,1 @ F,0,0,1,0,0,0,1 @ F,0,0,1,0,0,0,1 @ F,0,0,1,0,7.6162717,0,1 @ F,0,0,1,0,0,0,1 @ F,0,0,1,0,27.570401,0,1 @ F,0,0,1,0,0,0,1 @ F,0,0,1,0,5.2062632,0,1 @ F,0,0,1,0,0,0,1 @ F,0,0,1,0,10.616934,0,1 @ F,0,0,1,0,0,0,1 @ F,0,0,1,0,13.465569,0,1 @ F,0,0,1,0,0,0,1 @ F,0,0,1,0,8.5775137,0,1 @ F,0,0,1,0,10.723831,0,1 @ F,0,0,1,0,0,0,1 @ F,0,0,1,0,11.465194,0,1 @ F,0,0,1,0,0,0,1 @ F,0,0,1,0,6.2283152,0,1 @ F,0,0,1,0,0,0,1 @ F,0,0,1,0,0,0,1 @ F,0,0,1,0,0,0,1 @ F,0,0,1,0,8.9074591,0,1 @ F,0,0,1,0,0,0,1 @ F,0,0,1,0,5.4687336,0,1 @ F,0,0,1,0,0,0,1 @ F,0,0,1,0,4.7872536,0,1 @ F,0,0,1,0,7.6377911,0,1 @ F,0,0,1,0,0,0,1 @ F,0,0,1,0,2.8482351,0,1 @ F,0,0,1,0,0,0,1 @ F,0,0,1,0,6.4873612,0,1 @ F,0,0,1,0,0,0,1 @ F,0,0,1,0,4.3593661,0,1 @ F,0,0,1,0,0,0,1 @ F,0,0,1,0,1.3738179,0,1 @ F,0,0,1,0,0,0,1 @ F,0,0,1,0,10.201699,0,1 @ F,0,0,1,0,0,0,1"
     radius="0"
     unit="px"
     method="auto"
     mode="F"
     chamfer_steps="1"
     flexible="false"
     use_knot_distance="true"
     apply_no_radius="true"
     apply_with_radius="true"
     only_selected="false"
     hide_knots="false" /><inkscape:path-effect
     effect="fillet_chamfer"
     id="path-effect78"
     is_visible="true"
     lpeversion="1"
     nodesatellites_param="F,0,0,1,0,50,0,1 @ F,0,0,1,0,39.904638,0,1 @ F,0,0,1,0,39.904638,0,1 @ F,0,0,1,0,37.534393,0,1 @ F,0,0,1,0,39.904638,0,1 @ F,0,0,1,0,50,0,1 @ F,0,0,1,0,50,0,1 @ F,0,0,1,0,37.574939,0,1 @ F,0,0,1,0,50,0,1 @ F,0,0,1,0,50,0,1 @ F,0,0,1,0,32.887419,0,1 @ F,0,0,1,0,50,0,1 @ F,0,0,1,0,50,0,1 @ F,0,0,1,0,24.963976,0,1 @ F,0,0,1,0,29.809276,0,1 @ F,0,0,1,0,44.175753,0,1 @ F,0,0,1,0,50,0,1 @ F,0,0,1,0,50,0,1 @ F,0,0,1,0,50,0,1"
     radius="40"
     unit="px"
     method="auto"
     mode="F"
     chamfer_steps="1"
     flexible="false"
     use_knot_distance="true"
     apply_no_radius="true"
     apply_with_radius="true"
     only_selected="false"
     hide_knots="false" /></defs>
<sodipodi:namedview
   pagecolor="#a9a9a9"
   bordercolor="#292929"
   borderopacity="1"
   inkscape:showpageshadow="2"
   inkscape:pageopacity="0.0"
   inkscape:pagecheckerboard="0"
   inkscape:deskcolor="#232323"
   id="namedview1"
   inkscape:zoom="0.34756548"
   inkscape:cx="-936.51418"
   inkscape:cy="385.53886"
   inkscape:window-width="2560"
   inkscape:window-height="1351"
   inkscape:window-x="-9"
   inkscape:window-y="-9"
   inkscape:window-maximized="1"
   inkscape:current-layer="SVGRoot" />
<style
   type="text/css"
   id="style1">
g.prefab path {
  vector-effect:non-scaling-stroke;
  -inkscape-stroke:hairline;
  fill: none;
  fill-opacity: 1;
  stroke-opacity: 1;
  stroke: #00349c;
}
</style>
<g
   inkscape:label="Lily"
   style="display:none;fill:#ffffff;stroke:#000000;stroke-width:2"
   class="prefab"
   id="g9"
   transform="matrix(1.8220803,0,0,1.8227722,-377.67308,-372.89529)">
  <path
   d="m 104.40403,102.19398 699.99997,3e-5 10e-6,699.99995 -700.00002,-10e-6 z m 2e-5,1e-5 -1e-5,699.99993 116.66664,4e-5 4e-5,-699.99997 z m 233.33335,-1e-5 -5e-5,699.99996 116.66668,10e-6 4e-5,-699.99997 z m 233.33331,3e-5 1e-5,699.99994 116.66664,4e-5 3e-5,-699.99998 z m -466.66672,699.99994 4e-5,-699.99997 699.99997,3e-5 10e-6,699.99995 z m 5e-5,-3e-5 699.99997,4e-5 4e-5,-116.66664 -700.00004,-3e-5 z m -10e-6,-233.3333 700.00003,2e-5 V 452.19397 l -700.00002,-10e-6 z m 3e-5,-233.33333 699.99997,4e-5 2e-5,-116.66666 -700.00002,-1e-5 z M 454.40401,452.19395 804.40407,102.194 l -6e-5,699.99996 z m -349.99997,349.99997 1e-5,-699.99993 349.99998,349.99999 z"
   id="path1" />
  <path
   d="m 571.07073,539.69395 c 0,48.32489 -4e-5,87.49998 -116.6667,262.5 -129.60437,-177.894 -116.66665,-214.1751 -116.66666,-262.5 3e-5,-48.32494 52.23341,-87.49998 116.66664,-87.5 64.43318,3e-5 116.66668,39.17507 116.66672,87.5 z"
   id="path2" />
  <path
   d="m 571.07072,366.43977 c 0,-48.32489 -3e-5,-87.49999 -116.66669,-262.50003 -129.60437,177.894 -116.66665,214.17508 -116.66665,262.49997 1e-5,48.32498 52.23339,85.75424 116.66663,85.75424 64.43316,1e-5 116.66671,-37.42929 116.66671,-85.75418 z"
   id="path3" />
  <path
   d="m 367.60016,569.91031 c -48.32489,-10e-6 -87.49999,-4e-5 -262.50002,-116.66669 177.894,-129.60436 214.17509,-116.66663 262.50002,-116.66667 48.32493,4e-5 86.80381,51.18381 86.80385,115.617 -4e-5,64.43321 -38.47892,117.71632 -86.80385,117.71636 z"
   id="path4" />
  <path
   d="m 540.85435,569.91032 c 48.32489,0 87.49999,-3e-5 262.49999,-116.6667 C 625.46036,323.63926 589.17927,336.57699 540.85438,336.57699 c -48.32497,0 -86.45037,51.18373 -86.45037,115.61696 0,64.43317 38.12543,117.71636 86.45034,117.71637 z"
   id="path5" />
  <path
   d="m 475.59344,595.19648 c -34.17086,34.17086 -61.87186,61.87177 -268.11132,103.1197 34.1459,-217.43414 68.94888,-233.94042 103.11973,-268.11129 34.17091,-34.17087 98.24099,-23.5721 143.80216,21.98906 45.56114,45.56115 55.36032,108.83164 21.18943,143.00253 z"
   id="path6" />
  <path
   d="m 598.10267,472.68727 c 34.17086,-34.17085 61.87181,-61.87188 103.11973,-268.11136 -217.43419,34.14594 -233.94043,68.94888 -268.11128,103.11974 -34.17094,34.17093 -24.2683,98.93712 21.29289,144.4983 45.56113,45.56113 109.5278,54.66418 143.69866,20.49332 z"
   id="path7" />
  <path
   d="M 310.35185,472.68725 C 276.18099,438.5164 248.48005,410.81538 207.2321,204.57593 c 217.4342,34.1459 233.94044,68.94887 268.11136,103.11971 34.17085,34.17093 24.62167,98.93713 -20.93945,144.49831 -45.56119,45.56113 -109.88123,54.66415 -144.05216,20.4933 z"
   id="path8" />
  <path
   d="M 432.86105,595.19646 C 467.0319,629.3673 494.73289,657.06829 700.97242,698.31617 666.82648,480.882 632.02352,464.37578 597.85265,430.20491 563.68174,396.034 499.96516,406.6328 454.40401,452.19395 408.84285,497.75511 398.69019,561.0256 432.86105,595.19646 Z"
   id="path9" />
</g><g
   id="g41"
   style="display:none;fill:#56334b;fill-opacity:1"
   transform="translate(451.42838,376.41797)"><rect
     style="fill:#56334b;fill-opacity:1;stroke-width:1.00138"
     id="rect39"
     width="150"
     height="451.41785"
     x="0"
     y="-1.398881e-14" /><rect
     style="fill:#56334b;fill-opacity:1;stroke-width:0.818265"
     id="rect40"
     width="150"
     height="301.41785"
     x="301.41785"
     y="-451.41785"
     transform="rotate(90)" /><rect
     style="fill:#56334b;fill-opacity:1;stroke-width:0.99823"
     id="rect41"
     width="150"
     height="448.58215"
     x="301.41785"
     y="451.41785" /></g><path
   d="M 0.01041073,0 V 451.41797 H 150.01041 301.42838 V 900 h 150 v -448.58203 -150 H 150.01041 V 0 Z"
   style="display:none;fill:#e46d43;stroke-width:1.00138"
   id="path39" />
<g
   id="g37"
   style="display:none;fill:#56334b;fill-opacity:1"
   transform="translate(451.42838,1.2332031e-4)"><rect
     style="fill:#56334b;fill-opacity:1;stroke-width:1.00138"
     id="rect34"
     width="150"
     height="451.41785"
     x="0"
     y="-1.398881e-14" /><rect
     style="fill:#56334b;fill-opacity:1;stroke-width:0.818265"
     id="rect35"
     width="150"
     height="301.41785"
     x="301.41785"
     y="-451.41785"
     transform="rotate(90)" /><rect
     style="fill:#56334b;fill-opacity:1;stroke-width:0.99823"
     id="rect36"
     width="150"
     height="448.58215"
     x="301.41785"
     y="451.41785" /></g><g
   id="g44"
   style="display:none;fill:#56334b;fill-opacity:1"
   transform="translate(0.01053405,1.2332031e-4)"><rect
     style="fill:#56334b;fill-opacity:1;stroke-width:0.947367"
     id="rect42"
     width="98"
     height="618.41785"
     x="0"
     y="-1.3988794e-14" /><rect
     style="fill:#56334b;fill-opacity:1;stroke-width:1.04626"
     id="rect44"
     width="150"
     height="492.79108"
     x="301.41785"
     y="407.20892" /><rect
     style="fill:#56334b;fill-opacity:1;stroke-width:0.716179"
     id="rect45"
     width="98"
     height="353.41785"
     x="309.20892"
     y="-451.41785"
     transform="rotate(90)" /><rect
     style="fill:#56334b;fill-opacity:1;stroke-width:0.547332"
     id="rect47"
     width="98"
     height="206.41785"
     x="520.41785"
     y="-657.83569"
     transform="rotate(90)" /><rect
     style="fill:#56334b;fill-opacity:1;stroke-width:0.547332"
     id="rect48"
     width="98"
     height="206.41785"
     x="731.67468"
     y="149.71179"
     transform="rotate(20)" /></g><g
   id="g64"
   style="display:none"
   transform="translate(0.01041073)"><g
     id="g53"
     style="display:inline;fill:#56334b;fill-opacity:1"
     transform="translate(1.2332031e-4,1.2332031e-4)"><rect
       style="fill:#56334b;fill-opacity:1;stroke-width:0.947367"
       id="rect49"
       width="98"
       height="618.41785"
       x="0"
       y="-1.3988794e-14" /><rect
       style="fill:#56334b;fill-opacity:1;stroke-width:1.04626"
       id="rect50"
       width="150"
       height="492.79108"
       x="226.41785"
       y="407.20892" /><rect
       style="fill:#56334b;fill-opacity:1;stroke-width:0.635661"
       id="rect51"
       width="98"
       height="278.41785"
       x="309.20892"
       y="-376.41785"
       transform="rotate(90)" /><rect
       style="fill:#56334b;fill-opacity:1;stroke-width:0.726836"
       id="rect52"
       width="98"
       height="364.01395"
       x="519.86871"
       y="-740.43176"
       transform="rotate(90)" /><rect
       style="fill:#56334b;fill-opacity:1;stroke-width:0.610002"
       id="rect53"
       width="87.67424"
       height="286.59134"
       x="710.5152"
       y="-212.42653"
       transform="matrix(0.76840505,0.63996381,-0.30878658,0.95113135,0,0)" /></g><g
     id="g62"
     transform="matrix(0.80363993,0.20630839,-0.20630839,0.80363993,176.72406,-185.67755)"><path
       style="fill:#56334b;fill-opacity:1;stroke-width:1.22321"
       d="M 900,0 633.81738,498.68966 C 539.83347,433.77049 429.87858,339.29264 524.63558,202.47217 637.84043,71.209388 767.96576,64.732264 900,0 Z"
       id="path53"
       sodipodi:nodetypes="cccc" /><path
       style="fill:#5c5c5c;fill-opacity:1;stroke-width:1.22321"
       d="M 900,0 631.42631,497.406 c 106.0392,42.4637 245.53975,81.90659 307.22046,-72.67095 C 985.50201,257.85232 919.00098,145.81587 900,0 Z"
       id="path57"
       sodipodi:nodetypes="cccc" /><rect
       style="fill:#c29fb2;fill-opacity:1;stroke-width:0.609426"
       id="rect54"
       width="121.69844"
       height="13.623357"
       x="336.21277"
       y="-554.94269"
       transform="matrix(0.49348228,0.86975585,-0.97380869,0.22736896,0,0)"
       ry="6.8116784"
       rx="60.849228" /><rect
       style="fill:#c29fb2;fill-opacity:1;stroke-width:0.452262"
       id="rect55"
       width="106.56615"
       height="8.5681334"
       x="112.26105"
       y="-787.48193"
       transform="rotate(90)"
       ry="4.2840667"
       rx="53.283073" /><rect
       style="fill:#c29fb2;fill-opacity:1;stroke-width:0.597185"
       id="rect56"
       width="140.71425"
       height="11.31371"
       x="599.92413"
       y="-286.29904"
       transform="rotate(50)"
       ry="5.6568551"
       rx="70.357124" /><rect
       style="fill:#c29fb2;fill-opacity:1;stroke-width:1.92727"
       id="rect57"
       width="454.12006"
       height="36.512169"
       x="-388.0058"
       y="-810.11145"
       transform="rotate(118.40655)"
       ry="18.256084"
       rx="227.06003" /><rect
       style="fill:#c29fb2;fill-opacity:1;stroke-width:0.609426"
       id="rect62"
       width="121.69844"
       height="13.623357"
       x="-608.42444"
       y="512.27533"
       transform="matrix(-0.96677653,0.25562304,0.51859428,0.85502045,0,0)"
       ry="6.8116784"
       rx="60.849228" /><rect
       style="fill:#c29fb2;fill-opacity:1;stroke-width:0.500817"
       id="rect63"
       width="100.01"
       height="11.195476"
       x="-564.59729"
       y="553.63959"
       transform="matrix(-0.91343485,0.40698498,0.64869225,0.76105083,0,0)"
       ry="5.5977378"
       rx="50.005005" /><rect
       style="fill:#c29fb2;fill-opacity:1;stroke-width:0.992782"
       id="rect64"
       width="198.2522"
       height="22.193056"
       x="-609.47247"
       y="558.78882"
       transform="matrix(-0.97852779,0.20611494,0.47443046,0.88029298,0,0)"
       ry="11.096528"
       rx="99.126114" /></g></g><g
   id="g77"
   style="display:none"
   transform="translate(0.01041073)"><path
     d="m 0,50 v 528.51333 a 39.904638,39.904638 45 0 0 39.904638,39.90464 H 58.095362 A 39.904638,39.904638 135 0 0 98,578.51333 V 444.74337 a 37.534393,37.534393 135 0 1 37.53439,-37.53439 h 50.97894 a 39.904638,39.904638 45 0 1 39.90464,39.90464 V 850 a 50,50 45 0 0 50,50 h 50 a 50,50 135 0 0 50,-50 l 0,-194.55592 a 37.574939,37.574939 135 0 1 37.57494,-37.57494 l 276.43873,0 a 50,50 135 0 0 50,-50 49.010203,49.010203 43.830861 0 0 -50,-48 H 643.28 a 23.900128,23.900128 53.993137 0 1 -22.73214,-31.28023 l 42.94041,-132.2648 a 73.854477,73.854477 73.887998 0 0 -22.98046,-79.55512 30.311355,30.311355 152.15744 0 0 -44.38878,23.4457 l -63.60374,195.91047 a 34.351387,34.351387 143.9932 0 1 -32.67263,23.74398 h -93.61541 a 29.809276,29.809276 45 0 1 -29.80928,-29.80928 v -38.67513 -92.17575 a 50,50 45 0 0 -50,-50 H 148 a 50,50 45 0 1 -50,-50 V 50 A 50,50 45 0 0 48,0 49.010203,49.010203 133.83086 0 0 0,50 Z"
     style="fill:#56334b;stroke-width:0.947367"
     id="path77"
     inkscape:path-effect="#path-effect78"
     inkscape:original-d="M 0,0 V 618.41797 H 98 V 407.20898 H 226.41797 V 900 h 150 V 617.86914 h 364.01367 v -98 H 610.39258 L 678.92773,308.76758 611.55859,252.6582 524.80664,519.86914 H 376.41797 v -112.66016 -98 H 98 V 0 Z" /><path
     d="M 900,0 C 780.53804,24.781487 674.62604,3.1411098 556.57031,85.273437 453.01408,174.96715 519.98957,272.70701 581.73047,344.125 c 0.24421,0.28249 0.49034,0.57967 0.73437,0.86133 0.30174,0.22052 0.6193,0.44148 0.92188,0.66211 76.28126,55.62065 179.22615,114.28032 260.04492,3.6582 C 915.51519,224.86052 885.18701,121.10267 900,0 Z m -24.14063,24.226562 c 0.63922,-0.07326 1.13816,0.01229 1.49024,0.263672 0.0438,0.03127 0.11113,0.03591 0.15039,0.07227 5.69682,5.276132 -38.74285,62.524803 -101.57696,131.698746 -2.82823,3.11359 -1.85199,4.68443 2.23779,3.70253 6.04716,-1.45184 13.29862,-2.92747 21.21222,-4.26847 5.5116,-0.93396 10.8157,-1.7135 15.70347,-2.32522 14.93067,-1.86862 16.25066,5.13733 1.65284,8.17524 -4.11977,0.85736 -8.58474,1.70036 -13.27819,2.49569 -13.15572,2.22929 -25.00258,3.54847 -32.90262,3.82397 -2.87279,0.10018 -6.77063,1.73277 -8.70702,3.85831 -0.40629,0.44598 -0.81796,0.89526 -1.23997,1.35092 -12.94522,13.97739 -25.48945,27.14072 -37.52139,39.49817 -4.09045,4.20112 -2.7148,6.91419 3.12786,6.43027 7.84523,-0.64978 17.42465,-1.06937 27.95994,-1.14524 15.60556,-0.11238 29.74126,0.53892 39.34651,1.65723 7.25142,0.84426 7.48268,6.27847 0.38096,7.17782 -8.88359,1.125 -21.82199,1.8799 -36.45208,1.98526 -15.31463,0.11029 -29.18978,-0.51597 -38.76802,-1.59668 -4.70528,-0.53089 -11.17315,1.41458 -14.52318,4.764 -17.682,17.67876 -33.59122,32.81352 -46.64285,44.40242 -4.42862,3.93229 -3.30517,6.6126 2.61051,6.33514 13.74979,-0.6449 31.46088,-0.62727 51.20245,0.23575 31.80923,1.39056 59.76746,4.53754 74.14258,7.99647 6.01181,1.44656 6.09225,7.67549 0.16728,8.55937 -13.57479,2.02507 -39.53655,2.64175 -69.88018,1.31525 -29.60974,-1.29441 -55.87425,-4.11134 -70.9585,-7.2848 -3.36546,-0.70804 -8.2479,0.26201 -11.06051,2.24183 -4.09979,2.88588 -7.28689,4.70517 -9.43607,5.33985 -1.20367,0.35546 -2.19736,0.47206 -2.72265,0.0605 -0.0273,-0.0214 -0.0722,-0.0233 -0.0977,-0.0469 -2.4859,-2.30233 4.891,-14.81058 18.88949,-33.61967 2.93707,-3.9464 3.23162,-10.47192 0.77933,-14.7361 -5.20325,-9.04768 -11.67719,-21.45155 -18.35241,-35.38251 -10.3389,-21.57693 -18.15335,-40.53716 -20.57005,-49.39724 -0.76903,-2.81942 1.70876,-4.00664 3.42431,-1.64072 5.39103,7.43481 15.27175,25.40452 25.61058,46.98132 6.98678,14.58117 12.75249,27.84626 16.52791,37.69433 0.94639,2.46864 2.98619,2.79771 4.62653,0.72416 16.38143,-20.70776 38.32876,-46.46992 63.60929,-74.55484 2.82208,-3.13515 3.95455,-8.88401 2.61395,-12.88345 -2.20461,-6.57707 -4.4693,-13.95662 -6.66674,-22.06028 -5.87087,-21.65047 -9.20391,-39.88085 -8.67856,-46.21497 0.12032,-1.450618 2.30232,-1.786886 3.15938,-0.519038 3.9394,5.827568 10.75381,24.616668 16.81801,46.980098 1.41431,5.21567 2.63269,10.12138 3.70286,14.75039 0.80702,3.49074 3.36903,4.18511 5.77483,1.53011 1.8434,-2.03434 3.69266,-4.07179 5.62973,-6.16331 7.85329,-8.47945 15.59672,-16.71536 23.16839,-24.65643 1.66143,-1.74248 3.43114,-5.05827 3.97326,-7.40405 0.90743,-3.9265 1.91798,-8.07664 3.02046,-12.37116 5.26215,-20.49783 10.78438,-37.248002 13.41889,-41.106994 0.4084,-0.598222 1.43875,-0.333664 1.50844,0.387337 0.44956,4.650898 -2.78045,21.989536 -8.04257,42.487237 -0.73111,2.84796 1.77131,1.85374 5.71361,-2.17155 47.75838,-48.763646 85.5853,-82.378738 94.72389,-83.426104 z"
     style="fill:#5c5c5c;stroke-width:1.22321"
     id="path78"
     inkscape:path-effect="#path-effect79"
     inkscape:original-d="M 900,0 C 780.53804,24.781487 674.62604,3.1411098 556.57031,85.273437 453.01408,174.96715 519.98957,272.70701 581.73047,344.125 c 0.24421,0.28249 0.49034,0.57967 0.73437,0.86133 0.30174,0.22052 0.6193,0.44148 0.92188,0.66211 76.28126,55.62065 179.22615,114.28032 260.04492,3.6582 C 915.51519,224.86052 885.18701,121.10267 900,0 Z m -24.14063,24.226562 c 0.63922,-0.07326 1.13816,0.01229 1.49024,0.263672 0.0438,0.03127 0.11113,0.03591 0.15039,0.07227 5.85066,5.418612 -41.17957,65.654671 -106.70703,137.328116 7.03692,-2.02647 17.11339,-4.25222 28.58008,-6.19531 22.66173,-3.84013 41.81556,-5.06952 42.94531,-2.75781 1.12975,2.31171 -16.20545,7.26338 -38.86719,11.10352 -16.49122,2.79451 -30.92575,4.1589 -38.10742,3.83007 -1.61907,1.7587 -3.10255,3.43276 -4.74219,5.20313 -15.63179,16.87817 -30.67889,32.56934 -44.94531,47.08789 8.86944,-1.29151 22.60043,-2.19011 38.51172,-2.30469 27.96862,-0.20141 51.21599,2.05016 52.12305,5.04688 0.90705,2.99672 -20.87904,5.57202 -48.84766,5.77343 -20.77104,0.14958 -38.89413,-1.05573 -47.24024,-2.91211 -24.0314,24.25994 -45.14325,44.21951 -60.7832,57.52149 14.56581,-1.29139 36.56123,-1.57656 61.90235,-0.46875 45.51983,1.98993 83.15346,7.57671 84.38085,12.52734 1.2274,4.95064 -34.43133,7.33369 -79.95117,5.34375 -34.09091,-1.49031 -63.74743,-4.99884 -77.01172,-8.74609 -6.5625,5.05269 -11.48574,8.16955 -14.44336,9.04297 -1.20367,0.35546 -2.19736,0.47206 -2.72265,0.0605 -0.0273,-0.0214 -0.0722,-0.0233 -0.0977,-0.0469 -2.787,-2.58119 6.8227,-17.99035 24.26172,-40.72461 -5.65029,-8.85372 -14.12196,-24.59964 -22.94531,-43.01367 -13.97457,-29.16444 -23.33707,-53.54829 -20.99219,-54.67188 2.34488,-1.12358 15.48247,21.4508 29.45703,50.61524 8.11304,16.93163 14.57961,32.08869 18.19531,42.18164 17.70303,-22.65385 42.66824,-51.95763 71.6875,-83.98633 -2.96112,-8.23322 -6.13089,-18.06094 -9.17187,-29.27539 -7.31998,-26.99448 -10.69469,-48.672124 -7.56445,-48.603512 3.13023,0.06861 11.5433,21.855122 18.86328,48.849602 2.07738,7.66095 3.73206,14.65316 5.11523,21.08203 3.36137,-3.6757 6.5371,-7.23426 9.99219,-10.96484 8.89759,-9.60702 17.65417,-18.90142 26.17969,-27.80859 1.13601,-5.13482 2.47307,-10.74363 3.98242,-16.62305 6.08994,-23.722334 12.52822,-42.425186 14.43555,-41.935542 1.90732,0.489643 -1.46085,19.980786 -7.55079,43.703122 -0.47011,1.83126 -0.93422,3.36984 -1.40625,5.13476 51.08618,-52.682995 92.25549,-89.633512 101.84375,-90.732414 z" /></g><path
   d="M 48.010411,0 C 20.948567,0.55228254 -0.54187181,22.938156 0.01041073,50 v 528.51367 c 1.884e-4,22.03837 17.86592827,39.90411 39.90429727,39.9043 h 18.191406 c 22.038369,-1.9e-4 39.904109,-17.86593 39.904297,-39.9043 V 444.74414 c -4.22e-4,-20.73019 16.804969,-37.53558 37.535159,-37.53516 h 50.97851 c 22.03837,1.9e-4 39.90411,17.86593 39.9043,39.9043 V 850 c 0,27.61413 22.38587,50 50,50 h 50 c 27.61413,0 50,-22.38587 50,-50 V 655.44336 c 4e-4,-20.75142 16.8228,-37.57382 37.57422,-37.57422 h 276.43945 c 27.61413,0 50,-22.38587 50,-50 -0.55228,-27.06184 -22.93815,-48.55228 -50,-48 h -47.15234 c -16.23326,-10e-4 -27.74249,-15.83915 -22.73047,-31.2793 L 652.819,389.22266 c 62.89078,31.50016 132.46693,39.6862 190.62305,-39.91602 C 915.52538,224.86089 885.19746,121.10231 900.01041,0 780.54881,24.781413 674.6361,3.1413567 556.58072,85.273437 453.0248,174.96688 520.00016,272.70722 581.74088,344.125 c 0.032,0.037 0.0637,0.0758 0.0957,0.11328 L 532.52603,496.125 c -4.59639,14.15793 -17.78847,23.74464 -32.67382,23.74414 h -93.61524 c -16.46261,-3.8e-4 -29.80821,-13.34598 -29.80859,-29.80859 v -38.67578 -92.17579 c 0,-27.61412 -22.38587,-50 -50,-50 H 148.01041 c -27.61413,0 -49.999999,-22.38587 -49.999999,-50 V 50 c 0,-27.614127 -22.385873,-50 -50,-50 z M 875.86978,24.226562 c 0.63922,-0.07326 1.13816,0.01229 1.49024,0.263672 0.0438,0.03127 0.11113,0.03591 0.15039,0.07227 5.6968,5.276116 -38.74225,62.525476 -101.57617,131.699216 -2.82822,3.11358 -1.85345,4.68307 2.23633,3.70117 6.04714,-1.45184 13.29931,-2.92658 21.21289,-4.26758 5.51158,-0.93396 10.81537,-1.71445 15.70312,-2.32617 14.93063,-1.86862 16.25013,5.13788 1.65235,8.17578 -4.11977,0.85736 -8.58392,1.70077 -13.27735,2.4961 -13.15567,2.22928 -25.00233,3.54872 -32.90234,3.82421 -2.87278,0.10019 -6.77065,1.73189 -8.70703,3.85743 -0.4063,0.44598 -0.81823,0.8959 -1.24024,1.35156 -12.94517,13.97734 -25.48958,27.14063 -37.52148,39.49805 -4.09045,4.2011 -2.71374,6.9136 3.1289,6.42968 7.84521,-0.64978 17.42373,-1.06866 27.95899,-1.14453 15.60551,-0.11238 29.74048,0.5399 39.3457,1.6582 7.25139,0.84426 7.48256,6.27839 0.38086,7.17774 -8.88355,1.125 -21.82113,1.87902 -36.45117,1.98437 -15.31458,0.11029 -29.18937,-0.51695 -38.76758,-1.59765 -4.70527,-0.53089 -11.17341,1.41622 -14.52344,4.76562 -17.68195,17.67871 -33.59098,32.81348 -46.64257,44.40235 -4.42861,3.93227 -3.3063,6.61144 2.60937,6.33398 13.74974,-0.6449 31.46161,-0.62669 51.20313,0.23633 31.80913,1.39056 59.7675,4.53717 74.14257,7.99609 6.01179,1.44656 6.09292,7.67667 0.16797,8.56055 -13.57476,2.02507 -39.53732,2.64095 -69.88086,1.31445 -23.08968,-1.00938 -43.94987,-2.95553 -59.25586,-5.26367 -4.32203,-0.65176 -8.38162,-1.3227 -11.70312,-2.02148 -3.36545,-0.70804 -8.24795,0.26237 -11.06055,2.24218 -4.09977,2.88587 -7.28637,4.70517 -9.43555,5.33985 -1.20366,0.35546 -2.19736,0.4721 -2.72265,0.0605 -0.0273,-0.0214 -0.0722,-0.0233 -0.0977,-0.0469 -2.10279,-1.94751 3.16517,-11.50026 13.21485,-25.68945 1.83089,-2.58506 3.51655,-5.03107 5.67382,-7.92969 2.93707,-3.94639 3.23158,-10.47217 0.7793,-14.73633 -5.20323,-9.04766 -11.67636,-21.45189 -18.35156,-35.38281 -10.33887,-21.57687 -18.15362,-40.53643 -20.57031,-49.39649 -0.76903,-2.8194 1.70828,-4.00653 3.42382,-1.64062 5.39102,7.43479 15.27253,25.40374 25.61133,46.98047 6.98676,14.58112 12.75194,27.84532 16.52735,37.69336 0.94639,2.46863 2.98662,2.79815 4.62695,0.72461 16.38138,-20.7077 38.32892,-46.46985 63.60937,-74.55469 2.82208,-3.13513 3.95389,-8.88338 2.61329,-12.88281 -2.20461,-6.57705 -4.46859,-13.95692 -6.66602,-22.06055 -5.87085,-21.65041 -9.20309,-39.88075 -8.67773,-46.21484 0.12031,-1.450614 2.30114,-1.787375 3.1582,-0.519531 3.93939,5.827541 10.75418,24.617101 16.81836,46.980461 1.4143,5.21566 2.63296,10.12101 3.70312,14.75 0.80702,3.49073 3.3696,4.18625 5.77539,1.53125 1.84339,-2.03433 3.69185,-4.07254 5.62891,-6.16406 7.85326,-8.47943 15.59633,-16.71521 23.16797,-24.65625 1.66142,-1.74248 3.43249,-5.05853 3.97461,-7.4043 0.90742,-3.92649 1.91705,-8.07658 3.01953,-12.37109 5.26214,-20.497767 10.78347,-37.248437 13.41797,-41.107417 0.4084,-0.59822 1.44007,-0.33428 1.50976,0.386718 0.44956,4.650885 -2.78086,21.990639 -8.04297,42.488279 -0.7311,2.84795 1.77061,1.85339 5.7129,-2.17188 47.75824,-48.7635 85.58604,-82.378411 94.7246,-83.425774 z"
   style="fill:#6da33a;fill-opacity:1;stroke-width:0.947367"
   id="path85" /></svg>
