<svg width="38" height="40" viewBox="0 0 38 40" fill="none" xmlns="http://www.w3.org/2000/svg">
<g opacity="0.05">
<rect width="6.6087" height="25" rx="1" fill="#6DA33A"/>
<path d="M14.8691 16H21.4778V39C21.4778 39.5523 21.0301 40 20.4778 40H15.8691C15.3169 40 14.8691 39.5523 14.8691 39V16Z" fill="#6DA33A"/>
<path d="M31.3916 21C31.3916 20.4477 31.8393 20 32.3916 20H37.0003C37.5526 20 38.0003 20.4477 38.0003 21V31C38.0003 31.5523 37.5526 32 37.0003 32H32.3916C31.8393 32 31.3916 31.5523 31.3916 31V21Z" fill="#6DA33A"/>
<path d="M18.1166 13.0245C19.9771 13.0273 21.4792 14.5378 21.4717 16.3982V16.3982L6.42534 16.3758L6.43497 14.0071C6.43721 13.4548 6.88675 13.0078 7.43903 13.0086L18.1166 13.0245Z" fill="#6DA33A"/>
<path d="M31.5879 28.0249L31.5783 30.3936C31.576 30.9459 31.1265 31.3929 30.5742 31.3921L22.4675 31.38C21.9152 31.3792 21.4693 30.9308 21.4715 30.3785L21.4812 28.0099L31.5879 28.0249Z" fill="#6DA33A"/>
</g>
</svg>
